STARTFONT 2.1
COMMENT
COMMENT Converted from OpenType font "manrope-light.otf" by "otf2bdf 3.0".
COMMENT
FONT -FreeType-Manrope Light-Medium-R-Normal--46-330-100-100-P-202-ISO10646-1
SIZE 33 100 100
FONTBOUNDINGBOX 42 56 -1 -11
STARTPROPERTIES 19
FOUNDRY "FreeType"
FAMILY_NAME "Manrope Light"
WEIGHT_NAME "Medium"
SLANT "R"
SETWIDTH_NAME "Normal"
ADD_STYLE_NAME ""
PIXEL_SIZE 46
POINT_SIZE 330
RESOLUTION_X 100
RESOLUTION_Y 100
SPACING "P"
AVERAGE_WIDTH 202
CHARSET_REGISTRY "ISO10646"
CHARSET_ENCODING "1"
FONT_ASCENT 49
FONT_DESCENT 13
COPYRIGHT "Copyright 2019-2021 The Manrope Project Authors (https://github.com/sharanda/manrope)"
_OTF_FONTFILE "manrope-light.otf"
_OTF_PSNAME "Manrope-Light"
ENDPROPERTIES
CHARS 191
STARTCHAR 0020
ENCODING 32
SWIDTH 196 0
DWIDTH 9 0
BBX 0 0 0 0
BITMAP
ENDCHAR
STARTCHAR 0021
ENCODING 33
SWIDTH 305 0
DWIDTH 14 0
BBX 3 33 5 0
BITMAP
E0
E0
E0
E0
E0
E0
E0
E0
E0
E0
E0
E0
E0
E0
E0
E0
E0
E0
E0
E0
E0
E0
E0
E0
E0
00
00
00
00
00
E0
E0
E0
ENDCHAR
STARTCHAR 0022
ENCODING 34
SWIDTH 370 0
DWIDTH 17 0
BBX 9 8 3 25
BITMAP
C180
C180
C180
C180
C180
C180
C180
C180
ENDCHAR
STARTCHAR 0023
ENCODING 35
SWIDTH 916 0
DWIDTH 42 0
BBX 36 33 3 0
BITMAP
0001C03800
0001C03800
0001803000
0001803000
0003807000
0003807000
0003006000
000700E000
000700E000
1FFFFFFFF0
1FFFFFFFF0
1FFFFFFFF0
000E01C000
000E01C000
000C018000
001C038000
001C038000
0018030000
0018070000
0038070000
FFFFFFFF80
FFFFFFFF80
FFFFFFFF80
00700E0000
00700E0000
00600C0000
00E01C0000
00E01C0000
00E01C0000
00C0180000
01C0380000
01C0380000
0180300000
ENDCHAR
STARTCHAR 0024
ENCODING 36
SWIDTH 567 0
DWIDTH 26 0
BBX 23 41 2 -4
BITMAP
003800
003800
003800
003800
01FE00
07FF80
1FFFE0
3E01F0
380078
700038
70001C
60000C
60000E
60000C
700000
780000
3C0000
1F0000
0FE000
03FE00
007FC0
0007F0
0000F8
00003C
00001C
00000E
00000E
00000E
C0000E
E0000E
E0000E
70001C
78003C
3E0078
1FFFF0
07FFC0
01FF00
003800
003800
003800
003800
ENDCHAR
STARTCHAR 0025
ENCODING 37
SWIDTH 894 0
DWIDTH 41 0
BBX 36 33 3 0
BITMAP
07E0000080
1FF80001C0
3FFC0003C0
781E000780
700E000F00
E007001E00
C003003C00
C003007800
C00300F000
E00301E000
E00703C000
700E078000
781E0F0000
3FFC1E0000
1FF83C0000
07E0780000
0000F00000
0001E07C00
0003C1FF00
000787FF80
000E0701C0
001C0E00E0
00381C00E0
00701C0060
00E01C0070
01C01C0070
03801C0060
07001C00E0
0E000E00E0
1C000F01C0
380007FF80
700003FF00
2000007C00
ENDCHAR
STARTCHAR 0026
ENCODING 38
SWIDTH 654 0
DWIDTH 30 0
BBX 27 33 2 0
BITMAP
00FE0000
03FFC000
07FFE000
0F00F000
1C007000
1C002000
38000000
38000000
38000000
38000000
38000000
1C000000
1E000000
0F000000
07800000
03C00000
0FE00000
1EF00000
38380600
701C0600
700E0600
E0070600
E0038600
E001E600
E0007600
E0003E00
70001E00
70001E00
38003F00
3E007B80
1FFFF1C0
07FFC0E0
00FF0040
ENDCHAR
STARTCHAR 0027
ENCODING 39
SWIDTH 196 0
DWIDTH 9 0
BBX 2 8 3 25
BITMAP
C0
C0
C0
C0
C0
C0
C0
C0
ENDCHAR
STARTCHAR 0028
ENCODING 40
SWIDTH 414 0
DWIDTH 19 0
BBX 11 46 6 -8
BITMAP
00C0
00E0
01C0
0380
0380
0700
0E00
0E00
1C00
1C00
1800
3800
3800
3000
7000
7000
7000
6000
6000
6000
E000
E000
E000
E000
E000
E000
6000
6000
6000
7000
7000
7000
3000
3800
3800
1C00
1C00
0C00
0E00
0700
0700
0380
03C0
01C0
00E0
0040
ENDCHAR
STARTCHAR 0029
ENCODING 41
SWIDTH 414 0
DWIDTH 19 0
BBX 11 46 2 -8
BITMAP
6000
E000
7000
3800
3C00
1C00
0E00
0E00
0700
0700
0300
0380
0380
0180
01C0
01C0
00C0
00C0
00C0
00E0
00E0
00E0
00E0
00E0
00E0
00E0
00C0
00C0
00C0
01C0
01C0
01C0
0180
0380
0380
0300
0700
0600
0E00
0C00
1C00
3800
3800
7000
E000
4000
ENDCHAR
STARTCHAR 002A
ENCODING 42
SWIDTH 436 0
DWIDTH 20 0
BBX 16 15 1 18
BITMAP
0180
0180
0180
0180
4182
799F
FFFF
1FF8
03C0
07E0
0770
0E70
1C38
1818
0810
ENDCHAR
STARTCHAR 002B
ENCODING 43
SWIDTH 589 0
DWIDTH 27 0
BBX 21 21 3 6
BITMAP
006000
006000
006000
006000
006000
006000
006000
006000
006000
FFFFF8
FFFFF8
006000
006000
006000
006000
006000
006000
006000
006000
006000
006000
ENDCHAR
STARTCHAR 002C
ENCODING 44
SWIDTH 261 0
DWIDTH 12 0
BBX 3 9 3 -5
BITMAP
E0
E0
E0
E0
20
60
60
C0
80
ENDCHAR
STARTCHAR 002D
ENCODING 45
SWIDTH 414 0
DWIDTH 19 0
BBX 14 2 3 13
BITMAP
FFFC
FFFC
ENDCHAR
STARTCHAR 002E
ENCODING 46
SWIDTH 240 0
DWIDTH 11 0
BBX 3 3 4 0
BITMAP
E0
E0
E0
ENDCHAR
STARTCHAR 002F
ENCODING 47
SWIDTH 370 0
DWIDTH 17 0
BBX 11 33 3 0
BITMAP
00E0
00E0
00E0
00C0
01C0
01C0
01C0
0180
0380
0380
0380
0700
0700
0700
0600
0E00
0E00
0E00
0C00
1C00
1C00
1C00
1800
3800
3800
3800
7000
7000
7000
6000
E000
E000
E000
ENDCHAR
STARTCHAR 0030
ENCODING 48
SWIDTH 589 0
DWIDTH 27 0
BBX 21 33 3 0
BITMAP
01FC00
07FF00
0FFF80
1E03C0
3800E0
700070
700070
600038
E00038
E00038
E00038
E00038
E00038
E00038
E00038
E00038
E00038
E00038
E00038
E00038
E00038
E00038
E00038
E00038
E00038
600038
700070
700070
3800E0
1E03E0
0FFFC0
07FF00
01FC00
ENDCHAR
STARTCHAR 0031
ENCODING 49
SWIDTH 370 0
DWIDTH 17 0
BBX 9 33 3 0
BITMAP
0780
1F80
3F80
FB80
F380
C380
0380
0380
0380
0380
0380
0380
0380
0380
0380
0380
0380
0380
0380
0380
0380
0380
0380
0380
0380
0380
0380
0380
0380
0380
0380
0380
0380
ENDCHAR
STARTCHAR 0032
ENCODING 50
SWIDTH 567 0
DWIDTH 26 0
BBX 21 33 2 0
BITMAP
00FC00
07FF00
0FFFC0
1E01E0
3C00F0
380070
700038
700038
600018
600018
000018
000018
000038
000038
000038
000070
0000F0
0001E0
0003C0
000780
000F00
003C00
007800
00F000
01E000
03C000
078000
0F0000
1C0000
780000
FFFFF8
FFFFF8
FFFFF8
ENDCHAR
STARTCHAR 0033
ENCODING 51
SWIDTH 545 0
DWIDTH 25 0
BBX 20 33 2 0
BITMAP
7FFFF0
7FFFF0
7FFFF0
0001E0
0003C0
000780
000F00
001C00
003800
007000
01E000
03C000
07F800
07FF00
079F80
0003C0
0001E0
0000E0
000070
000070
000070
000070
000070
000070
000070
000070
E000E0
F000E0
7001E0
3C03C0
1FFF80
0FFF00
03F800
ENDCHAR
STARTCHAR 0034
ENCODING 52
SWIDTH 589 0
DWIDTH 27 0
BBX 22 33 2 0
BITMAP
001C00
001C00
003800
003800
007000
007000
00E000
00E000
00C000
01C000
01C000
038000
038000
070000
0700E0
0E00E0
0E00E0
1C00E0
1C00E0
3800E0
3800E0
7000E0
7000E0
6000E0
FFFFFC
FFFFFC
FFFFFC
0000E0
0000E0
0000E0
0000E0
0000E0
0000E0
ENDCHAR
STARTCHAR 0035
ENCODING 53
SWIDTH 567 0
DWIDTH 26 0
BBX 22 33 2 0
BITMAP
3FFFF0
3FFFF0
3FFFF0
380000
380000
300000
300000
300000
300000
300000
300000
700000
71FF00
77FFC0
7F03E0
7C00F0
780070
100038
000038
00001C
00001C
00001C
00001C
00001C
20001C
E0001C
700038
780078
3C00F0
1E01E0
0FFFC0
07FF80
00FC00
ENDCHAR
STARTCHAR 0036
ENCODING 54
SWIDTH 610 0
DWIDTH 28 0
BBX 22 33 3 0
BITMAP
00FE00
03FF80
0FFFC0
1F01F0
3C0070
380030
700000
700000
E00000
E00000
E00000
E00000
E0FE00
E3FF80
E7FFE0
EE01F0
FC0070
F80038
F0001C
E0001C
E0001C
E0000C
E0000C
E0000C
E0001C
60001C
700018
380038
3C0070
1E01F0
0FFFC0
03FF80
00FE00
ENDCHAR
STARTCHAR 0037
ENCODING 55
SWIDTH 501 0
DWIDTH 23 0
BBX 18 33 2 0
BITMAP
FFFFC0
FFFFC0
FFFFC0
0001C0
000180
000380
000380
000700
000700
000600
000E00
000E00
001C00
001C00
001800
003800
003800
007000
007000
006000
00E000
00E000
01C000
01C000
038000
038000
038000
070000
070000
0E0000
0E0000
0C0000
1C0000
ENDCHAR
STARTCHAR 0038
ENCODING 56
SWIDTH 567 0
DWIDTH 26 0
BBX 20 33 3 0
BITMAP
01F800
0FFF00
1FFF80
3C03C0
7801E0
7000E0
7000E0
600070
E00070
600060
7000E0
7000E0
3801C0
3E07C0
1FFF80
0FFF00
1FFF80
3C03C0
7000E0
F000F0
E00070
E00070
E00070
E00030
E00070
E00070
E00070
7000F0
7000E0
3C03C0
1FFF80
0FFF00
03FC00
ENDCHAR
STARTCHAR 0039
ENCODING 57
SWIDTH 610 0
DWIDTH 28 0
BBX 22 33 3 0
BITMAP
00FC00
07FF80
0FFFC0
1E01E0
3C0070
780038
700038
60001C
E0001C
E0001C
E0000C
E0001C
E0001C
E0001C
70003C
78003C
3C007C
1E01EC
0FFFCC
07FF0C
00FC0C
00000C
00000C
00001C
00001C
00001C
000038
380038
3C00F0
1E01E0
0FFFC0
07FF80
00FE00
ENDCHAR
STARTCHAR 003A
ENCODING 58
SWIDTH 283 0
DWIDTH 13 0
BBX 3 17 5 4
BITMAP
E0
E0
E0
00
00
00
00
00
00
00
00
00
00
00
E0
E0
E0
ENDCHAR
STARTCHAR 003B
ENCODING 59
SWIDTH 283 0
DWIDTH 13 0
BBX 3 30 5 -5
BITMAP
E0
E0
E0
00
00
00
00
00
00
00
00
00
00
00
00
00
00
00
00
00
00
E0
E0
E0
E0
20
20
60
E0
80
ENDCHAR
STARTCHAR 003C
ENCODING 60
SWIDTH 610 0
DWIDTH 28 0
BBX 12 21 7 4
BITMAP
0020
0070
00E0
01C0
0380
0700
0E00
1C00
3800
7000
E000
F000
7800
3C00
1E00
0F00
0780
03C0
01E0
00F0
0060
ENDCHAR
STARTCHAR 003D
ENCODING 61
SWIDTH 741 0
DWIDTH 34 0
BBX 24 9 5 12
BITMAP
FFFFFF
FFFFFF
000000
000000
000000
000000
000000
FFFFFF
FFFFFF
ENDCHAR
STARTCHAR 003E
ENCODING 62
SWIDTH 610 0
DWIDTH 28 0
BBX 12 21 9 4
BITMAP
4000
E000
7000
3800
1C00
0E00
0700
0380
01C0
00E0
0070
00F0
01E0
03C0
0780
0F00
1E00
3C00
7800
F000
6000
ENDCHAR
STARTCHAR 003F
ENCODING 63
SWIDTH 523 0
DWIDTH 24 0
BBX 19 33 2 0
BITMAP
03F800
0FFF00
1FFF80
3C03C0
7001C0
7000E0
6000E0
E000E0
E000E0
0000E0
0000E0
0000E0
0001C0
0003C0
000780
001F00
003C00
007800
007000
00E000
00E000
00E000
00E000
00E000
000000
000000
000000
000000
000000
00E000
00E000
00E000
00E000
ENDCHAR
STARTCHAR 0040
ENCODING 64
SWIDTH 894 0
DWIDTH 41 0
BBX 34 34 4 -5
BITMAP
001FFE0000
007FFF8000
01F807E000
07C000F000
0F00003C00
1E00001C00
1C00000E00
3800000700
3800000700
7000000380
6000000380
E007F60180
E01FFE0180
C01C1E01C0
C0380E01C0
C0300E01C0
C0300E01C0
C0300E0180
C0300E0180
C0380E0380
E03C1F0300
E01FFF8F00
6007F3FE00
700001FC00
7000000000
3800000000
1C00000000
1E00000000
0F00000000
0780008000
03E003C000
00FF3FC000
003FFF0000
000FF80000
ENDCHAR
STARTCHAR 0041
ENCODING 65
SWIDTH 610 0
DWIDTH 28 0
BBX 26 33 1 0
BITMAP
001E0000
001E0000
001F0000
003F0000
003B0000
00338000
00738000
0071C000
0061C000
00E1C000
00E0E000
00C0E000
01C06000
01C07000
03807000
03803000
03003800
07003800
07001800
06001C00
0E001C00
0E000E00
0FFFFE00
1FFFFE00
1FFFFF00
18000700
38000700
38000380
70000380
70000180
700001C0
E00001C0
E00000C0
ENDCHAR
STARTCHAR 0042
ENCODING 66
SWIDTH 610 0
DWIDTH 28 0
BBX 23 33 3 0
BITMAP
FFFF00
FFFFC0
FFFFE0
E000F0
E00038
E00038
E0001C
E0001C
E0001C
E0001C
E0001C
E00038
E00078
E000F0
FFFFE0
FFFFC0
FFFFE0
E000F8
E0003C
E0001C
E0000E
E0000E
E0000E
E00006
E00006
E0000E
E0000E
E0000E
E0001C
E0007C
FFFFF8
FFFFF0
FFFF80
ENDCHAR
STARTCHAR 0043
ENCODING 67
SWIDTH 698 0
DWIDTH 32 0
BBX 30 33 1 0
BITMAP
001FF000
00FFFC00
01FFFF00
07C00F80
0F0003C0
1E0000E0
1C000070
3C000070
38000038
70000038
7000001C
70000000
70000000
60000000
E0000000
E0000000
E0000000
E0000000
E0000000
60000000
70000000
70000000
7000001C
70000038
38000038
38000070
1C0000F0
1E0000E0
0F0003C0
07C00F80
01FFFF00
00FFFE00
001FF000
ENDCHAR
STARTCHAR 0044
ENCODING 68
SWIDTH 654 0
DWIDTH 30 0
BBX 25 33 3 0
BITMAP
FFFF0000
FFFFC000
FFFFF000
E000F800
E0003C00
E0001E00
E0000E00
E0000700
E0000700
E0000300
E0000380
E0000380
E0000380
E0000380
E0000380
E0000180
E0000180
E0000180
E0000380
E0000380
E0000380
E0000380
E0000380
E0000300
E0000700
E0000700
E0000E00
E0001E00
E0003C00
E000F800
FFFFF000
FFFFC000
FFFF0000
ENDCHAR
STARTCHAR 0045
ENCODING 69
SWIDTH 567 0
DWIDTH 26 0
BBX 21 33 3 0
BITMAP
FFFFF8
FFFFF8
FFFFF8
E00000
E00000
E00000
E00000
E00000
E00000
E00000
E00000
E00000
E00000
E00000
E00000
FFFFC0
FFFFC0
FFFFC0
E00000
E00000
E00000
E00000
E00000
E00000
E00000
E00000
E00000
E00000
E00000
E00000
FFFFF8
FFFFF8
FFFFF8
ENDCHAR
STARTCHAR 0046
ENCODING 70
SWIDTH 501 0
DWIDTH 23 0
BBX 19 33 3 0
BITMAP
FFFFE0
FFFFE0
FFFFE0
E00000
E00000
E00000
E00000
E00000
E00000
E00000
E00000
E00000
E00000
E00000
E00000
FFFF00
FFFF00
FFFF00
E00000
E00000
E00000
E00000
E00000
E00000
E00000
E00000
E00000
E00000
E00000
E00000
E00000
E00000
E00000
ENDCHAR
STARTCHAR 0047
ENCODING 71
SWIDTH 698 0
DWIDTH 32 0
BBX 30 33 1 0
BITMAP
001FE000
00FFFC00
03FFFF00
07C00F80
0F0003C0
1E0001E0
1C0000E0
38000070
38000060
70000000
70000000
70000000
70000000
60000000
E0000000
E0000000
E0003FF8
E0003FFC
E0000018
60000018
70000018
70000038
70000038
70000038
38000070
3C000070
1C0000F0
0E0000E0
0F0003C0
07C00780
01FFFF00
00FFFC00
001FF000
ENDCHAR
STARTCHAR 0048
ENCODING 72
SWIDTH 676 0
DWIDTH 31 0
BBX 25 33 3 0
BITMAP
E0000380
E0000380
E0000380
E0000380
E0000380
E0000380
E0000380
E0000380
E0000380
E0000380
E0000380
E0000380
E0000380
E0000380
E0000380
FFFFFF80
FFFFFF80
FFFFFF80
E0000380
E0000380
E0000380
E0000380
E0000380
E0000380
E0000380
E0000380
E0000380
E0000380
E0000380
E0000380
E0000380
E0000380
E0000380
ENDCHAR
STARTCHAR 0049
ENCODING 73
SWIDTH 218 0
DWIDTH 10 0
BBX 2 33 4 0
BITMAP
C0
C0
C0
C0
C0
C0
C0
C0
C0
C0
C0
C0
C0
C0
C0
C0
C0
C0
C0
C0
C0
C0
C0
C0
C0
C0
C0
C0
C0
C0
C0
C0
C0
ENDCHAR
STARTCHAR 004A
ENCODING 74
SWIDTH 458 0
DWIDTH 21 0
BBX 17 33 0 0
BITMAP
000380
000380
000380
000380
000380
000380
000380
000380
000380
000380
000380
000380
000380
000380
000380
000380
000380
000380
000380
000380
000380
000380
000380
000380
000380
000380
E00380
E00380
700700
780F00
3FFE00
1FFC00
07F000
ENDCHAR
STARTCHAR 004B
ENCODING 75
SWIDTH 567 0
DWIDTH 26 0
BBX 23 33 3 0
BITMAP
E0003C
E00078
E000F0
E001E0
E003C0
E00780
E00F00
E01E00
E03C00
E07800
E0F000
E1E000
E3C000
E78000
EF0000
FE0000
FE0000
EF0000
E78000
E3C000
E1E000
E0F000
E07800
E03C00
E01E00
E00F00
E00780
E003C0
E001E0
E000F0
E00078
E0003C
E0001E
ENDCHAR
STARTCHAR 004C
ENCODING 76
SWIDTH 501 0
DWIDTH 23 0
BBX 18 33 4 0
BITMAP
C00000
C00000
C00000
C00000
C00000
C00000
C00000
C00000
C00000
C00000
C00000
C00000
C00000
C00000
C00000
C00000
C00000
C00000
C00000
C00000
C00000
C00000
C00000
C00000
C00000
C00000
C00000
C00000
C00000
C00000
FFFFC0
FFFFC0
FFFFC0
ENDCHAR
STARTCHAR 004D
ENCODING 77
SWIDTH 829 0
DWIDTH 38 0
BBX 32 33 3 0
BITMAP
E0000007
E0000007
F000000F
F000000F
F800001F
F800001F
FC00001B
FC00003B
EE000033
EE000073
E7000073
E70000E3
E30000E3
E38001C3
E18001C3
E1C00383
E0C00383
E0E00303
E0E00703
E0700603
E0700E03
E0380C03
E0381C03
E01C1C03
E01C3803
E00C3803
E00E7003
E0067003
E007E003
E007E003
E003C003
E003C003
E0018003
ENDCHAR
STARTCHAR 004E
ENCODING 78
SWIDTH 676 0
DWIDTH 31 0
BBX 25 33 3 0
BITMAP
E0000380
F0000380
F8000380
F8000380
FC000380
FE000380
EE000380
E7000380
E7800380
E3800380
E1C00380
E1E00380
E0E00380
E0700380
E0780380
E0380380
E01C0380
E01E0380
E00E0380
E0070380
E0038380
E0038380
E001C380
E000E380
E000E380
E0007380
E0003B80
E0003B80
E0001F80
E0000F80
E0000F80
E0000780
E0000380
ENDCHAR
STARTCHAR 004F
ENCODING 79
SWIDTH 720 0
DWIDTH 33 0
BBX 30 33 1 0
BITMAP
001FF000
00FFFC00
01FFFF00
07C00F80
0F0003C0
1E0000E0
1C0000F0
3C000070
38000038
70000038
7000001C
7000001C
7000001C
6000001C
E000001C
E000001C
E000000C
E000000C
E000001C
6000001C
7000001C
7000001C
7000001C
70000038
38000038
38000070
1C000070
1E0000E0
0F0003C0
07C00F80
01FFFF00
00FFFE00
001FF000
ENDCHAR
STARTCHAR 0050
ENCODING 80
SWIDTH 589 0
DWIDTH 27 0
BBX 23 33 3 0
BITMAP
FFFF00
FFFFC0
FFFFF0
E00078
E00038
E0001C
E0001C
E0000E
E0000E
E0000E
E0000E
E0000E
E0000E
E0001C
E0001C
E00038
E00078
FFFFF0
FFFFE0
FFFF00
E00000
E00000
E00000
E00000
E00000
E00000
E00000
E00000
E00000
E00000
E00000
E00000
E00000
ENDCHAR
STARTCHAR 0051
ENCODING 81
SWIDTH 720 0
DWIDTH 33 0
BBX 30 33 1 0
BITMAP
001FF000
00FFFC00
01FFFF00
07C00F80
0F0003C0
1E0000E0
1C0000F0
3C000070
38000038
70000038
7000001C
7000001C
7000001C
6000001C
E000001C
E000001C
E000000C
E000000C
E000001C
6000001C
7000001C
7000001C
7000001C
70000438
38000E38
38000F70
1C0007F0
1E0001E0
0F0003E0
07C00FF0
01FFFF38
00FFFC1C
001FF008
ENDCHAR
STARTCHAR 0052
ENCODING 82
SWIDTH 610 0
DWIDTH 28 0
BBX 23 33 3 0
BITMAP
FFFF00
FFFFC0
FFFFF0
E00078
E00038
E0001C
E0001C
E0000E
E0000E
E0000E
E0000E
E0000E
E0000E
E0001C
E0001C
E00038
E00078
FFFFF0
FFFFC0
FFFF80
E001C0
E001C0
E001E0
E000E0
E000F0
E00070
E00078
E00038
E00038
E0001C
E0001C
E0000E
E0000E
ENDCHAR
STARTCHAR 0053
ENCODING 83
SWIDTH 610 0
DWIDTH 28 0
BBX 24 33 2 0
BITMAP
00FF00
07FFC0
0FFFF0
1E00F8
3C003C
78001E
70000E
700007
700007
700006
700000
780000
3C0000
1F8000
0FF000
03FF00
003FE0
0007F8
0000FC
00001E
00000E
000007
000007
000007
C00007
E00007
F00007
70000E
3C001E
3E007C
0FFFF8
07FFE0
00FF80
ENDCHAR
STARTCHAR 0054
ENCODING 84
SWIDTH 589 0
DWIDTH 27 0
BBX 27 33 0 0
BITMAP
FFFFFFE0
FFFFFFE0
FFFFFFE0
000E0000
000E0000
000E0000
000E0000
000E0000
000E0000
000E0000
000E0000
000E0000
000E0000
000E0000
000E0000
000E0000
000E0000
000E0000
000E0000
000E0000
000E0000
000E0000
000E0000
000E0000
000E0000
000E0000
000E0000
000E0000
000E0000
000E0000
000E0000
000E0000
000E0000
ENDCHAR
STARTCHAR 0055
ENCODING 85
SWIDTH 698 0
DWIDTH 32 0
BBX 26 33 3 0
BITMAP
E00001C0
E00001C0
E00001C0
E00001C0
E00001C0
E00001C0
E00001C0
E00001C0
E00001C0
E00001C0
E00001C0
E00001C0
E00001C0
E00001C0
E00001C0
E00001C0
E00001C0
E00001C0
E00001C0
E00001C0
E00001C0
E00001C0
E00001C0
E0000180
70000380
70000380
78000700
3C000F00
1E001E00
0F007C00
07FFF800
03FFF000
007F8000
ENDCHAR
STARTCHAR 0056
ENCODING 86
SWIDTH 589 0
DWIDTH 27 0
BBX 27 33 0 0
BITMAP
E00000E0
700000C0
700001C0
700001C0
38000380
38000380
18000380
1C000700
1C000700
0C000700
0E000E00
0E000E00
06000C00
07001C00
07001C00
03801800
03803800
03803800
01C03000
01C07000
01C07000
00E0E000
00E0E000
0060E000
0071C000
0071C000
00318000
003B8000
003B8000
001B0000
001F0000
001F0000
000E0000
ENDCHAR
STARTCHAR 0057
ENCODING 87
SWIDTH 916 0
DWIDTH 42 0
BBX 40 33 1 0
BITMAP
E0001C0003
E0003C0007
60003C0007
70003E0006
70007E000E
70007E000E
300076000E
380067000C
3800E7001C
1800E7001C
1C00C38018
1C01C38038
1C01C38038
0C01C18038
0E0181C030
0E0381C070
060381C070
070300E060
070700E0E0
070700E0E0
03070060E0
03860070C0
038E0071C0
018E0071C0
01CC003980
01DC003B80
01DC003B80
00DC001B80
00F8001F00
00F8001F00
0078001F00
0070000E00
0070000E00
ENDCHAR
STARTCHAR 0058
ENCODING 88
SWIDTH 589 0
DWIDTH 27 0
BBX 25 33 1 0
BITMAP
E0000380
70000700
78000F00
38000E00
1C001C00
1E003800
0E003800
07007000
0380E000
0380E000
01C1C000
00E38000
00E38000
00770000
003E0000
003E0000
001C0000
003E0000
007F0000
00770000
00E38000
01C1C000
01C1C000
0380E000
07007000
07007000
0E003800
1C001C00
1C001C00
38000E00
70000700
F0000780
E0000380
ENDCHAR
STARTCHAR 0059
ENCODING 89
SWIDTH 545 0
DWIDTH 25 0
BBX 24 33 0 0
BITMAP
E00007
700007
78000E
38000E
1C001C
1C0038
0E0038
0E0070
070070
0780E0
0380E0
01C1C0
01C380
00E380
00E700
007700
007E00
003E00
001C00
001C00
001C00
001C00
001C00
001C00
001C00
001C00
001C00
001C00
001C00
001C00
001C00
001C00
001C00
ENDCHAR
STARTCHAR 005A
ENCODING 90
SWIDTH 589 0
DWIDTH 27 0
BBX 23 33 2 0
BITMAP
7FFFFE
7FFFFE
7FFFFC
000038
000038
000070
0000F0
0000E0
0001C0
0001C0
000380
000700
000700
000E00
001E00
001C00
003800
003800
007000
00E000
00E000
01C000
03C000
038000
070000
070000
0E0000
1C0000
1C0000
380000
7FFFFE
7FFFFE
FFFFFE
ENDCHAR
STARTCHAR 005B
ENCODING 91
SWIDTH 392 0
DWIDTH 18 0
BBX 9 51 6 -10
BITMAP
FF80
FF80
FF80
E000
E000
E000
E000
E000
E000
E000
E000
E000
E000
E000
E000
E000
E000
E000
E000
E000
E000
E000
E000
E000
E000
E000
E000
E000
E000
E000
E000
E000
E000
E000
E000
E000
E000
E000
E000
E000
E000
E000
E000
E000
E000
E000
E000
E000
FF80
FF80
FF80
ENDCHAR
STARTCHAR 005C
ENCODING 92
SWIDTH 370 0
DWIDTH 17 0
BBX 11 33 3 0
BITMAP
E000
E000
E000
6000
7000
7000
7000
3800
3800
3800
1800
1C00
1C00
1C00
0C00
0E00
0E00
0E00
0600
0700
0700
0700
0380
0380
0380
0180
01C0
01C0
01C0
00C0
00E0
00E0
00E0
ENDCHAR
STARTCHAR 005D
ENCODING 93
SWIDTH 392 0
DWIDTH 18 0
BBX 8 51 4 -10
BITMAP
FF
FF
FF
07
07
07
07
07
07
07
07
07
07
07
07
07
07
07
07
07
07
07
07
07
07
07
07
07
07
07
07
07
07
07
07
07
07
07
07
07
07
07
07
07
07
07
07
07
FF
FF
FF
ENDCHAR
STARTCHAR 005E
ENCODING 94
SWIDTH 676 0
DWIDTH 31 0
BBX 21 12 5 22
BITMAP
002000
007000
00F800
01DC00
038E00
070700
0E0380
1C01C0
3800E0
700070
E00038
400010
ENDCHAR
STARTCHAR 005F
ENCODING 95
SWIDTH 654 0
DWIDTH 30 0
BBX 30 2 0 -4
BITMAP
FFFFFFFC
FFFFFFFC
ENDCHAR
STARTCHAR 0060
ENCODING 96
SWIDTH 480 0
DWIDTH 22 0
BBX 5 7 8 37
BITMAP
E0
E0
60
70
30
30
38
ENDCHAR
STARTCHAR 0061
ENCODING 97
SWIDTH 545 0
DWIDTH 25 0
BBX 20 25 2 0
BITMAP
01FC00
07FF80
1FFFC0
3C01E0
3800F0
700070
700070
000030
000030
000030
003FF0
07FFF0
1FF830
3E0030
780030
E00030
E00070
E00070
E00070
E000F0
E001F0
7007B0
3F7F30
1FFE30
07F000
ENDCHAR
STARTCHAR 0062
ENCODING 98
SWIDTH 589 0
DWIDTH 27 0
BBX 22 33 3 0
BITMAP
E00000
E00000
E00000
E00000
E00000
E00000
E00000
E00000
E0FE00
E3FF80
EFFFC0
FE01E0
F800F0
F80070
F00038
E00038
E00018
E0001C
E0001C
E0001C
E0001C
E0001C
E0001C
E0001C
E00018
E00038
F00038
F80070
F800F0
FE01E0
EFFFC0
E3FF80
E0FE00
ENDCHAR
STARTCHAR 0063
ENCODING 99
SWIDTH 545 0
DWIDTH 25 0
BBX 21 25 2 0
BITMAP
00FE00
07FF80
0FFFE0
1E01F0
3C0078
780038
700018
700000
E00000
E00000
E00000
E00000
E00000
E00000
E00000
E00000
E00000
700000
700018
780038
3C0070
1E01F0
0FFFE0
07FF80
01FE00
ENDCHAR
STARTCHAR 0064
ENCODING 100
SWIDTH 589 0
DWIDTH 27 0
BBX 22 33 2 0
BITMAP
00001C
00001C
00001C
00001C
00001C
00001C
00001C
00001C
01FC1C
07FF1C
0FFF9C
1E01DC
3800FC
78007C
70003C
60003C
E0001C
E0001C
E0001C
E0001C
E0001C
E0001C
E0001C
E0001C
E0001C
70003C
70003C
78007C
3800FC
1E01DC
0FFF9C
07FF1C
01FC1C
ENDCHAR
STARTCHAR 0065
ENCODING 101
SWIDTH 589 0
DWIDTH 27 0
BBX 23 25 2 0
BITMAP
00FE00
07FF80
0FFFE0
1E00F0
3C0070
780038
70001C
60001C
E0001C
E0000C
E0000E
FFFFFE
FFFFFE
E00000
E00000
E00000
E00000
600000
70001C
78003C
3C0078
1E00F0
0FFFE0
07FFC0
00FE00
ENDCHAR
STARTCHAR 0066
ENCODING 102
SWIDTH 349 0
DWIDTH 16 0
BBX 14 33 1 0
BITMAP
00FC
03FC
03C0
0700
0700
0600
0600
0600
FFFC
FFFC
0600
0600
0600
0600
0600
0600
0600
0600
0600
0600
0600
0600
0600
0600
0600
0600
0600
0600
0600
0600
0600
0600
0600
ENDCHAR
STARTCHAR 0067
ENCODING 103
SWIDTH 589 0
DWIDTH 27 0
BBX 22 36 2 -11
BITMAP
01FC1C
07FF1C
0FFFDC
1E01FC
3800FC
78007C
70003C
60003C
E0001C
E0001C
E0001C
E0001C
E0001C
E0001C
E0001C
E0001C
E0001C
70003C
70003C
78007C
3800FC
1E01DC
0FFF9C
07FF1C
01FC1C
000018
000018
000038
000038
100038
700078
380070
3E01E0
1FFFE0
07FF80
01FE00
ENDCHAR
STARTCHAR 0068
ENCODING 104
SWIDTH 589 0
DWIDTH 27 0
BBX 21 33 3 0
BITMAP
E00000
E00000
E00000
E00000
E00000
E00000
E00000
E00000
E0FC00
E7FF00
EFFFC0
FE01E0
F800E0
F00070
F00070
E00030
E00038
E00038
E00038
E00038
E00038
E00038
E00038
E00038
E00038
E00038
E00038
E00038
E00038
E00038
E00038
E00038
E00038
ENDCHAR
STARTCHAR 0069
ENCODING 105
SWIDTH 218 0
DWIDTH 10 0
BBX 2 33 4 0
BITMAP
C0
C0
C0
00
00
00
00
00
C0
C0
C0
C0
C0
C0
C0
C0
C0
C0
C0
C0
C0
C0
C0
C0
C0
C0
C0
C0
C0
C0
C0
C0
C0
ENDCHAR
STARTCHAR 006A
ENCODING 106
SWIDTH 240 0
DWIDTH 11 0
BBX 7 44 0 -11
BITMAP
06
06
06
00
00
00
00
00
06
06
06
06
06
06
06
06
06
06
06
06
06
06
06
06
06
06
06
06
06
06
06
06
06
06
06
06
06
06
06
0E
0E
FE
FC
F8
ENDCHAR
STARTCHAR 006B
ENCODING 107
SWIDTH 480 0
DWIDTH 22 0
BBX 19 33 3 0
BITMAP
E00000
E00000
E00000
E00000
E00000
E00000
E00000
E00000
E003C0
E00780
E00F00
E01E00
E03C00
E07800
E0F000
E1E000
E3C000
E78000
EF0000
FE0000
FC0000
FE0000
E70000
E38000
E1C000
E0F000
E07800
E03C00
E01E00
E00F00
E00780
E003C0
E001E0
ENDCHAR
STARTCHAR 006C
ENCODING 108
SWIDTH 218 0
DWIDTH 10 0
BBX 2 33 4 0
BITMAP
C0
C0
C0
C0
C0
C0
C0
C0
C0
C0
C0
C0
C0
C0
C0
C0
C0
C0
C0
C0
C0
C0
C0
C0
C0
C0
C0
C0
C0
C0
C0
C0
C0
ENDCHAR
STARTCHAR 006D
ENCODING 109
SWIDTH 829 0
DWIDTH 38 0
BBX 32 25 3 0
BITMAP
E3F807E0
EFFC1FF8
FF3F3EFC
F807701E
F003E00F
F003C007
E001C007
E001C003
E001C003
E001C003
E001C003
E001C003
E001C003
E001C003
E001C003
E001C003
E001C003
E001C003
E001C003
E001C003
E001C003
E001C003
E001C003
E001C003
E001C003
ENDCHAR
STARTCHAR 006E
ENCODING 110
SWIDTH 589 0
DWIDTH 27 0
BBX 21 25 3 0
BITMAP
E0FC00
E7FF00
EFFFC0
FE01E0
F800E0
F00070
F00070
E00030
E00038
E00038
E00038
E00038
E00038
E00038
E00038
E00038
E00038
E00038
E00038
E00038
E00038
E00038
E00038
E00038
E00038
ENDCHAR
STARTCHAR 006F
ENCODING 111
SWIDTH 589 0
DWIDTH 27 0
BBX 23 25 2 0
BITMAP
00FE00
07FF80
0FFFE0
1E00F0
3C0078
780038
70001C
70001C
E0000C
E0000E
E0000E
E0000E
E0000E
E0000E
E0000E
E0000E
E0000C
70001C
70001C
780038
3C0078
1E00F0
0FFFE0
07FF80
00FE00
ENDCHAR
STARTCHAR 0070
ENCODING 112
SWIDTH 589 0
DWIDTH 27 0
BBX 22 35 3 -10
BITMAP
E0FE00
E3FF80
EFFFC0
FE01E0
F800F0
F80070
F00038
E00038
E00018
E0001C
E0001C
E0001C
E0001C
E0001C
E0001C
E0001C
E00018
E00038
F00038
F80070
F800F0
FE01E0
EFFFC0
E3FF80
E0FE00
E00000
E00000
E00000
E00000
E00000
E00000
E00000
E00000
E00000
E00000
ENDCHAR
STARTCHAR 0071
ENCODING 113
SWIDTH 589 0
DWIDTH 27 0
BBX 22 35 2 -10
BITMAP
01FC1C
07FF1C
0FFFDC
1E01FC
3800FC
78007C
70003C
60003C
E0001C
E0001C
E0001C
E0001C
E0001C
E0001C
E0001C
E0001C
E0001C
70003C
70003C
78007C
3800FC
1E01DC
0FFF9C
07FF1C
01FC1C
00001C
00001C
00001C
00001C
00001C
00001C
00001C
00001C
00001C
00001C
ENDCHAR
STARTCHAR 0072
ENCODING 114
SWIDTH 349 0
DWIDTH 16 0
BBX 12 25 3 0
BITMAP
E1F0
E7F0
EFF0
FC00
F800
F000
F000
E000
E000
E000
E000
E000
E000
E000
E000
E000
E000
E000
E000
E000
E000
E000
E000
E000
E000
ENDCHAR
STARTCHAR 0073
ENCODING 115
SWIDTH 523 0
DWIDTH 24 0
BBX 20 25 2 0
BITMAP
03FC00
0FFF00
3FFFC0
3803C0
7000E0
6000F0
600070
600000
700000
7C0000
1F8000
0FF800
01FF00
001FC0
0003E0
0000E0
000070
000070
E00070
E00070
7000E0
7C01E0
3FDFC0
0FFF80
03FC00
ENDCHAR
STARTCHAR 0074
ENCODING 116
SWIDTH 392 0
DWIDTH 18 0
BBX 16 32 0 -1
BITMAP
0380
0380
0380
0380
0380
0380
0380
FFFF
FFFF
0380
0380
0380
0380
0380
0380
0380
0380
0380
0380
0380
0380
0380
0380
0380
0380
0380
0380
0380
01C0
01F3
00FF
003F
ENDCHAR
STARTCHAR 0075
ENCODING 117
SWIDTH 589 0
DWIDTH 27 0
BBX 21 25 3 0
BITMAP
C00038
C00038
C00038
C00038
C00038
C00038
C00038
C00038
C00038
C00038
C00038
C00038
C00038
C00038
C00038
E00038
E00038
E00078
600078
7000F8
7801F8
3C03F8
1FFFB8
0FFE38
03F838
ENDCHAR
STARTCHAR 0076
ENCODING 118
SWIDTH 501 0
DWIDTH 23 0
BBX 21 25 1 0
BITMAP
E00038
E00070
700070
700060
3000E0
3800E0
3800C0
1801C0
1C01C0
1C0180
0C0380
0E0380
0E0700
060700
070600
070E00
038E00
038C00
019C00
01DC00
01D800
00F800
00F800
00F000
007000
ENDCHAR
STARTCHAR 0077
ENCODING 119
SWIDTH 763 0
DWIDTH 35 0
BBX 33 25 1 0
BITMAP
E001C00380
E001C00300
6003C00700
7003E00700
7003E00600
3007600E00
3807700E00
3806700C00
380E301C00
180E301C00
1C0C381C00
1C0C181800
0C1C183800
0E181C3800
0E181C3000
06380C7000
07380E7000
07300E6000
077006E000
03F007E000
03E007E000
03E003C000
01E003C000
01C003C000
01C0018000
ENDCHAR
STARTCHAR 0078
ENCODING 120
SWIDTH 523 0
DWIDTH 24 0
BBX 22 25 1 0
BITMAP
E0003C
700038
380070
3C00E0
1C01E0
0E01C0
070380
038700
038E00
01CE00
00FC00
007800
007800
00F800
00FC00
01CE00
038F00
078700
070380
0E01C0
1C00E0
3800F0
780070
700038
E0001C
ENDCHAR
STARTCHAR 0079
ENCODING 121
SWIDTH 523 0
DWIDTH 24 0
BBX 22 36 1 -11
BITMAP
E0001C
E00038
700038
700030
300070
380070
380060
1C00E0
1C00E0
0C01C0
0E01C0
0601C0
070380
070380
030300
038700
018700
01C600
01CE00
00EE00
00FC00
007C00
007800
007800
003800
003000
007000
007000
006000
00E000
00E000
01C000
01C000
018000
038000
038000
ENDCHAR
STARTCHAR 007A
ENCODING 122
SWIDTH 523 0
DWIDTH 24 0
BBX 21 25 1 0
BITMAP
7FFFF8
7FFFF8
7FFFF0
0000E0
0001C0
0001C0
000380
000700
000E00
001E00
001C00
003800
007000
00E000
00E000
01C000
038000
070000
0F0000
0E0000
1C0000
380000
7FFFF0
7FFFF0
FFFFF0
ENDCHAR
STARTCHAR 007B
ENCODING 123
SWIDTH 414 0
DWIDTH 19 0
BBX 11 51 6 -10
BITMAP
00E0
07E0
0FE0
1E00
1C00
1C00
1C00
1C00
1C00
1C00
1C00
1C00
1C00
1C00
1C00
1C00
1C00
1C00
1C00
1C00
1C00
1C00
3800
3800
7000
E000
7000
7800
3800
1800
1C00
1C00
1C00
1C00
1C00
1C00
1C00
1C00
1C00
1C00
1C00
1C00
1C00
1C00
1C00
1C00
1C00
1C00
0FE0
0FE0
03E0
ENDCHAR
STARTCHAR 007C
ENCODING 124
SWIDTH 240 0
DWIDTH 11 0
BBX 3 33 4 0
BITMAP
E0
E0
E0
E0
E0
E0
E0
E0
E0
E0
E0
E0
E0
E0
E0
E0
E0
E0
E0
E0
E0
E0
E0
E0
E0
E0
E0
E0
E0
E0
E0
E0
E0
ENDCHAR
STARTCHAR 007D
ENCODING 125
SWIDTH 414 0
DWIDTH 19 0
BBX 10 51 2 -10
BITMAP
E000
FC00
FE00
0E00
0700
0700
0700
0700
0700
0700
0700
0700
0700
0700
0700
0700
0700
0700
0700
0700
0700
0700
0700
0380
01C0
01C0
01C0
0380
0380
0700
0700
0700
0700
0700
0700
0700
0700
0700
0700
0700
0700
0700
0700
0700
0700
0700
0700
0700
FE00
FC00
F800
ENDCHAR
STARTCHAR 007E
ENCODING 126
SWIDTH 654 0
DWIDTH 30 0
BBX 19 7 5 11
BITMAP
1E00E0
7F80E0
7FE0E0
F3F9E0
E0FFE0
E03FC0
600F80
ENDCHAR
STARTCHAR 00A0
ENCODING 160
SWIDTH 196 0
DWIDTH 9 0
BBX 0 0 0 0
BITMAP
ENDCHAR
STARTCHAR 00A1
ENCODING 161
SWIDTH 305 0
DWIDTH 14 0
BBX 3 33 5 -8
BITMAP
E0
E0
E0
00
00
00
00
00
E0
E0
E0
E0
E0
E0
E0
E0
E0
E0
E0
E0
E0
E0
E0
E0
E0
E0
E0
E0
E0
E0
E0
E0
E0
ENDCHAR
STARTCHAR 00A2
ENCODING 162
SWIDTH 545 0
DWIDTH 25 0
BBX 21 35 2 -2
BITMAP
003800
003800
003800
003800
00FC00
03FF80
0FFFE0
1E01F0
3C0070
380038
700038
700000
E00000
E00000
E00000
E00000
E00000
E00000
E00000
E00000
E00000
E00000
700000
700038
780038
3C0070
1E00F0
0FFFE0
07FF80
00FE00
003800
003800
003800
003800
003800
ENDCHAR
STARTCHAR 00A3
ENCODING 163
SWIDTH 567 0
DWIDTH 26 0
BBX 24 33 1 0
BITMAP
000FC0
003FF0
007FF8
00F03C
01E01C
01C00E
01800E
018007
018004
018000
018000
018000
018000
018000
018000
FFFFC0
FFFFC0
FFFFC0
018000
018000
018000
018000
018000
018000
018000
018000
018000
018000
038000
038000
FFFFFE
FFFFFE
FFFFFE
ENDCHAR
STARTCHAR 00A4
ENCODING 164
SWIDTH 632 0
DWIDTH 29 0
BBX 25 25 2 3
BITMAP
C0000180
E0FF8380
73FFE700
3FC1FE00
1E007C00
1C001C00
38000E00
30000600
70000700
60000700
60000300
E0000380
E0000380
E0000300
60000300
60000700
70000700
30000600
38000E00
1C001C00
1E003C00
3F81FE00
73FFE700
E0FF8380
C0000180
ENDCHAR
STARTCHAR 00A5
ENCODING 165
SWIDTH 545 0
DWIDTH 25 0
BBX 24 33 0 0
BITMAP
E00007
700007
70000E
38000E
1C001C
1C0038
0E0038
0E0070
070070
0780E0
0380E0
01C1C0
01C380
00E380
00E700
007700
007E00
003E00
001C00
0FFFF8
0FFFF8
001C00
001C00
001C00
001C00
0FFFF8
0FFFF8
001C00
001C00
001C00
001C00
001C00
001C00
ENDCHAR
STARTCHAR 00A6
ENCODING 166
SWIDTH 240 0
DWIDTH 11 0
BBX 3 39 4 -6
BITMAP
E0
E0
E0
E0
E0
E0
E0
E0
E0
E0
E0
E0
E0
E0
E0
E0
00
00
00
00
00
00
00
E0
E0
E0
E0
E0
E0
E0
E0
E0
E0
E0
E0
E0
E0
E0
E0
ENDCHAR
STARTCHAR 00A7
ENCODING 167
SWIDTH 523 0
DWIDTH 24 0
BBX 20 37 2 -7
BITMAP
03F800
0FFE00
1FBF00
3C0780
7001C0
7001E0
7000E0
700080
700000
3C0000
1F0000
0FF000
0FFE00
3E3FC0
7807E0
7000F0
E00070
E00070
E00030
E00070
780070
3E00F0
1FE1E0
07FFC0
007F80
000FC0
0001E0
0000E0
000060
000060
700060
7000E0
3800E0
3C03C0
1FDFC0
07FF00
01FC00
ENDCHAR
STARTCHAR 00A8
ENCODING 168
SWIDTH 501 0
DWIDTH 23 0
BBX 12 3 5 38
BITMAP
F070
F070
F070
ENDCHAR
STARTCHAR 00A9
ENCODING 169
SWIDTH 785 0
DWIDTH 36 0
BBX 33 33 1 -1
BITMAP
0001C00000
001FFE0000
007FFF8000
01F80FC000
03E001F000
0780007800
0F00003C00
1E03F01C00
1C0FFC0E00
381E3E0E00
30380F0700
7070070700
7070020380
6060000380
E0E0000380
E0E0000380
E0E0000380
E0E0000380
E0E0000380
6060000380
7070020380
7070070700
3038070700
381E3E0F00
3C0FFC0E00
1C03F01C00
0E00003C00
0780007800
03C001F000
01F80FE000
007FFF8000
001FFE0000
0001E00000
ENDCHAR
STARTCHAR 00AA
ENCODING 170
SWIDTH 305 0
DWIDTH 14 0
BBX 11 13 2 12
BITMAP
3F80
7FC0
61C0
60C0
00E0
1FE0
7FE0
E0E0
C0E0
C0E0
E160
7F60
3800
ENDCHAR
STARTCHAR 00AB
ENCODING 171
SWIDTH 523 0
DWIDTH 24 0
BBX 17 20 4 2
BITMAP
010100
038380
030700
070E00
0E1C00
1C1800
383800
307000
70E000
E1C000
E0C000
70E000
387000
183800
1C1800
0E1C00
070E00
038700
038380
010000
ENDCHAR
STARTCHAR 00AC
ENCODING 172
SWIDTH 610 0
DWIDTH 28 0
BBX 22 8 3 9
BITMAP
FFFFFC
FFFFFC
00001C
00001C
00001C
00001C
00001C
00001C
ENDCHAR
STARTCHAR 00AD
ENCODING 173
SWIDTH 414 0
DWIDTH 19 0
BBX 14 2 3 13
BITMAP
FFFC
FFFC
ENDCHAR
STARTCHAR 00AE
ENCODING 174
SWIDTH 610 0
DWIDTH 28 0
BBX 22 21 3 14
BITMAP
01FE00
07FF80
0F03C0
1C00E0
380070
71F838
71FE18
61861C
E1831C
E1820C
C1FE0C
E1FC0C
E18C1C
61841C
618618
718638
380070
1C00E0
0F03C0
07FF80
01FE00
ENDCHAR
STARTCHAR 00AF
ENCODING 175
SWIDTH 480 0
DWIDTH 22 0
BBX 12 2 5 39
BITMAP
FFF0
FFF0
ENDCHAR
STARTCHAR 00B0
ENCODING 176
SWIDTH 458 0
DWIDTH 21 0
BBX 17 16 1 17
BITMAP
03E000
0FF800
1FFE00
380E00
700700
600300
600380
E00380
E00380
E00380
700300
700700
380E00
1F7E00
0FF800
03F000
ENDCHAR
STARTCHAR 00B1
ENCODING 177
SWIDTH 610 0
DWIDTH 28 0
BBX 22 21 3 4
BITMAP
003000
003000
003000
003000
003000
003000
FFFFFC
FFFFFC
003000
003000
003000
003000
003000
003000
003000
000000
000000
000000
000000
FFFFFC
FFFFFC
ENDCHAR
STARTCHAR 00B2
ENCODING 178
SWIDTH 392 0
DWIDTH 18 0
BBX 14 21 2 12
BITMAP
0FC0
1FF0
3870
7038
601C
E01C
E00C
001C
001C
0018
0038
0070
01E0
03C0
0780
0E00
1C00
3800
7000
FFFC
FFFC
ENDCHAR
STARTCHAR 00B3
ENCODING 179
SWIDTH 392 0
DWIDTH 18 0
BBX 13 21 2 12
BITMAP
7FF8
7FF8
0070
00E0
01C0
0380
0700
0E00
1F80
1FE0
00F0
0030
0038
0018
0018
0018
C038
E030
70F0
3FE0
1F80
ENDCHAR
STARTCHAR 00B4
ENCODING 180
SWIDTH 480 0
DWIDTH 22 0
BBX 5 7 9 37
BITMAP
38
30
70
70
60
E0
C0
ENDCHAR
STARTCHAR 00B5
ENCODING 181
SWIDTH 589 0
DWIDTH 27 0
BBX 21 35 3 -10
BITMAP
E00038
E00038
E00038
E00038
E00038
E00038
E00038
E00038
E00038
E00038
E00038
E00038
E00038
E00038
E00038
E00038
E00038
E00038
F00078
F00078
F800F8
FE03D8
EFFF98
E7FF18
E1FC18
E00000
E00000
E00000
E00000
E00000
E00000
E00000
E00000
E00000
E00000
ENDCHAR
STARTCHAR 00B6
ENCODING 182
SWIDTH 610 0
DWIDTH 28 0
BBX 20 39 4 -6
BITMAP
03FE70
0FFE70
1FFE70
3FFE70
7FFE70
7FFE70
FFFE70
FFFE70
FFFE70
FFFE70
FFFE70
FFFE70
FFFE70
FFFE70
7FFE70
7FFE70
3FFE70
1FFE70
0FFE70
03FE70
000E70
000E70
000E70
000E70
000E70
000E70
000E70
000E70
000E70
000E70
000E70
000E70
000E70
000E70
000E70
000E70
000E70
000E70
000E70
ENDCHAR
STARTCHAR 00B7
ENCODING 183
SWIDTH 218 0
DWIDTH 10 0
BBX 4 4 3 12
BITMAP
F0
F0
F0
E0
ENDCHAR
STARTCHAR 00B8
ENCODING 184
SWIDTH 392 0
DWIDTH 18 0
BBX 6 11 6 -11
BITMAP
38
30
30
78
7C
0C
0C
0C
9C
FC
F0
ENDCHAR
STARTCHAR 00B9
ENCODING 185
SWIDTH 305 0
DWIDTH 14 0
BBX 6 21 3 12
BITMAP
1C
7C
FC
CC
0C
0C
0C
0C
0C
0C
0C
0C
0C
0C
0C
0C
0C
0C
0C
0C
0C
ENDCHAR
STARTCHAR 00BA
ENCODING 186
SWIDTH 349 0
DWIDTH 16 0
BBX 12 13 2 12
BITMAP
1F00
3FC0
70E0
E060
C070
C070
C070
C070
C070
E060
70E0
3FC0
1F00
ENDCHAR
STARTCHAR 00BB
ENCODING 187
SWIDTH 523 0
DWIDTH 24 0
BBX 17 20 3 2
BITMAP
404000
E0C000
70E000
387000
183800
1C1C00
0E0C00
070E00
038700
018380
038380
030700
070E00
0E1C00
1C1800
383800
307000
70E000
E0C000
400000
ENDCHAR
STARTCHAR 00BC
ENCODING 188
SWIDTH 960 0
DWIDTH 44 0
BBX 35 33 3 0
BITMAP
1C00001000
7C00003800
FC00007000
CC0000F000
0C0000E000
0C0001C000
0C00038000
0C00078000
0C00070000
0C000E0000
0C001C0000
0C00380000
0C00780C00
0C00701C00
0C00E01800
0C01C03800
0C03C03800
0C03803000
0C07007000
0C0E006000
0C1C00E000
003C00C180
003801C180
0070018180
00E0038180
01C0030180
03C0070180
038007FFE0
070007FFE0
0E00000180
1E00000180
1C00000180
0800000180
ENDCHAR
STARTCHAR 00BD
ENCODING 189
SWIDTH 916 0
DWIDTH 42 0
BBX 36 33 3 0
BITMAP
1C00001000
7C00003800
FC00007000
CC0000F000
0C0000E000
0C0001C000
0C00038000
0C00078000
0C00070000
0C000E0000
0C001C0000
0C00380000
0C00781F00
0C00707FC0
0C00E0F0E0
0C01C1C070
0C03C1C030
0C03818030
0C07000030
0C0E000030
0C1C000030
003C000070
00380000E0
00700001C0
00E0000380
01C0000700
03C0000E00
0380001C00
0700007800
0E0000F000
1E0001E000
1C0001FFF0
080001FFF0
ENDCHAR
STARTCHAR 00BE
ENCODING 190
SWIDTH 960 0
DWIDTH 44 0
BBX 39 33 2 0
BITMAP
7FF8000100
7FF8000380
0070000780
00E0000700
01C0000E00
0380001C00
0700003C00
0E00003800
1F80007000
1FE000E000
00F001C000
003003C000
0038038000
00180700C0
00180E01C0
00181E0180
C0381C0380
E030380300
70F0700700
3FE0E00600
1F81E00E00
0001C00C18
0003801C18
0007001818
000F003818
000E003818
001C003018
0038007FFE
0070007FFE
00F0000018
00E0000018
01C0000018
0080000018
ENDCHAR
STARTCHAR 00BF
ENCODING 191
SWIDTH 523 0
DWIDTH 24 0
BBX 19 34 2 -9
BITMAP
007000
007000
007000
007000
000000
000000
000000
000000
000000
007000
007000
007000
007000
00E000
00E000
01C000
03C000
0F8000
1E0000
3C0000
380000
700000
700000
E00000
E00000
E00060
E000E0
E000E0
7000E0
7801C0
3C03C0
1FFF80
0FFF00
03F800
ENDCHAR
STARTCHAR 00C0
ENCODING 192
SWIDTH 610 0
DWIDTH 28 0
BBX 26 44 1 0
BITMAP
00700000
00300000
00380000
00380000
00180000
001C0000
000C0000
00000000
00000000
00000000
00000000
001E0000
001E0000
001F0000
003F0000
003B0000
00338000
00738000
0071C000
0061C000
00E1C000
00E0E000
00C0E000
01C06000
01C07000
03807000
03803000
03003800
07003800
07001800
06001C00
0E001C00
0E000E00
0FFFFE00
1FFFFE00
1FFFFF00
18000700
38000300
38000380
70000380
70000180
700001C0
E00001C0
E00000C0
ENDCHAR
STARTCHAR 00C1
ENCODING 193
SWIDTH 610 0
DWIDTH 28 0
BBX 26 44 1 0
BITMAP
00018000
00038000
00030000
00030000
00070000
00060000
000E0000
00000000
00000000
00000000
00000000
001E0000
001E0000
001F0000
003F0000
003B0000
00338000
00738000
0071C000
0061C000
00E1C000
00E0E000
00C0E000
01C06000
01C07000
03807000
03803000
03003800
07003800
07001800
06001C00
0E001C00
0E000E00
0FFFFE00
1FFFFE00
1FFFFF00
18000700
38000700
38000380
70000380
70000180
700001C0
E00001C0
E00000C0
ENDCHAR
STARTCHAR 00C2
ENCODING 194
SWIDTH 610 0
DWIDTH 28 0
BBX 26 43 1 0
BITMAP
000E0000
001F0000
003B8000
00738000
00E1C000
01C0E000
00000000
00000000
00000000
00000000
001E0000
001E0000
001F0000
003F0000
003B0000
00338000
00738000
0071C000
0061C000
00E1C000
00E0E000
00C0E000
01C06000
01C07000
03807000
03803000
03003800
07003800
07001800
06001C00
0E001C00
0E000E00
0FFFFE00
1FFFFE00
1FFFFF00
18000700
38000700
38000380
70000380
70000180
700001C0
E00001C0
E00000C0
ENDCHAR
STARTCHAR 00C3
ENCODING 195
SWIDTH 610 0
DWIDTH 28 0
BBX 26 43 1 0
BITMAP
00F03000
01FC3000
019F7000
0187E000
0181C000
00000000
00000000
00000000
00000000
00000000
001E0000
001E0000
001F0000
003F0000
003B0000
00338000
00738000
0071C000
0061C000
00E1C000
00E0E000
00C0E000
01C06000
01C07000
03807000
03803000
03003800
07003800
07001800
06001C00
0E001C00
0E000E00
0FFFFE00
1FFFFE00
1FFFFF00
18000700
38000700
38000380
70000380
70000180
700001C0
E00001C0
E00000C0
ENDCHAR
STARTCHAR 00C4
ENCODING 196
SWIDTH 610 0
DWIDTH 28 0
BBX 26 41 1 0
BITMAP
01E0E000
01E0E000
01E0E000
00000000
00000000
00000000
00000000
00000000
001E0000
001E0000
001F0000
003F0000
003B0000
00338000
00738000
0071C000
0061C000
00E1C000
00E0E000
00C0E000
01C06000
01C07000
03807000
03803000
03003800
07003800
07001800
06001C00
0E001C00
0E000E00
0FFFFE00
1FFFFE00
1FFFFF00
18000700
38000700
38000380
70000380
70000180
700001C0
E00001C0
E00000C0
ENDCHAR
STARTCHAR 00C5
ENCODING 197
SWIDTH 610 0
DWIDTH 28 0
BBX 26 45 1 0
BITMAP
001F0000
003F8000
0071C000
0060C000
00E0C000
0060C000
0071C000
003F8000
001F0000
00000000
00000000
00000000
001E0000
001E0000
001F0000
003F0000
003B0000
00338000
00738000
0071C000
0061C000
00E1C000
00E0E000
00C0E000
01C06000
01C07000
03807000
03803000
03003800
07003800
07001800
06001C00
0E001C00
0E000E00
0FFFFE00
1FFFFE00
1FFFFF00
18000700
38000700
38000380
70000380
70000180
700001C0
E00001C0
E00000C0
ENDCHAR
STARTCHAR 00C6
ENCODING 198
SWIDTH 916 0
DWIDTH 42 0
BBX 38 33 1 0
BITMAP
001FFFFFFC
001FFFFFFC
001FFFFFFC
0038380000
0038380000
0030380000
0070380000
0070380000
0060380000
00E0380000
00E0380000
00C0380000
01C0380000
01C0380000
0380380000
03803FFFF0
03003FFFF0
07003FFFF0
0700380000
0600380000
0E00380000
0E00380000
0FFFF80000
1FFFF80000
1FFFF80000
1800380000
3800380000
3800380000
7000380000
7000380000
70003FFFFC
E0003FFFFC
E0003FFFFC
ENDCHAR
STARTCHAR 00C7
ENCODING 199
SWIDTH 698 0
DWIDTH 32 0
BBX 30 43 1 -10
BITMAP
001FF000
00FFFC00
01FFFF00
07C00F80
0F0003C0
1E0000E0
1C000070
3C000070
38000038
70000038
7000001C
70000000
70000000
60000000
E0000000
E0000000
E0000000
E0000000
E0000000
60000000
70000000
70000000
7000001C
70000038
38000038
38000070
1C0000F0
1E0000E0
0F0003C0
07C00F80
01FFFF00
00FFFC00
001FF000
00018000
00018000
00038000
0003C000
0000E000
00006000
00006000
0000E000
0007E000
000FC000
ENDCHAR
STARTCHAR 00C8
ENCODING 200
SWIDTH 567 0
DWIDTH 26 0
BBX 21 44 3 0
BITMAP
00C000
00C000
00E000
006000
007000
007000
003000
000000
000000
000000
000000
FFFFF8
FFFFF8
FFFFF8
E00000
E00000
E00000
E00000
E00000
E00000
E00000
E00000
E00000
E00000
E00000
E00000
FFFFC0
FFFFC0
FFFFC0
E00000
E00000
E00000
E00000
E00000
E00000
E00000
E00000
E00000
E00000
E00000
E00000
FFFFF8
FFFFF8
FFFFF8
ENDCHAR
STARTCHAR 00C9
ENCODING 201
SWIDTH 567 0
DWIDTH 26 0
BBX 21 44 3 0
BITMAP
000E00
000C00
001C00
001800
001800
003800
003000
000000
000000
000000
000000
FFFFF8
FFFFF8
FFFFF8
E00000
E00000
E00000
E00000
E00000
E00000
E00000
E00000
E00000
E00000
E00000
E00000
FFFFC0
FFFFC0
FFFFC0
E00000
E00000
E00000
E00000
E00000
E00000
E00000
E00000
E00000
E00000
E00000
E00000
FFFFF8
FFFFF8
FFFFF8
ENDCHAR
STARTCHAR 00CA
ENCODING 202
SWIDTH 567 0
DWIDTH 26 0
BBX 21 43 3 0
BITMAP
007000
00F800
01D800
039C00
070E00
0E0700
000000
000000
000000
000000
FFFFF8
FFFFF8
FFFFF8
E00000
E00000
E00000
E00000
E00000
E00000
E00000
E00000
E00000
E00000
E00000
E00000
FFFFC0
FFFFC0
FFFFC0
E00000
E00000
E00000
E00000
E00000
E00000
E00000
E00000
E00000
E00000
E00000
E00000
FFFFF8
FFFFF8
FFFFF8
ENDCHAR
STARTCHAR 00CB
ENCODING 203
SWIDTH 567 0
DWIDTH 26 0
BBX 21 41 3 0
BITMAP
0E0F00
0E0F00
0E0F00
000000
000000
000000
000000
000000
FFFFF8
FFFFF8
FFFFF8
E00000
E00000
E00000
E00000
E00000
E00000
E00000
E00000
E00000
E00000
E00000
E00000
FFFFC0
FFFFC0
FFFFC0
E00000
E00000
E00000
E00000
E00000
E00000
E00000
E00000
E00000
E00000
E00000
E00000
FFFFF8
FFFFF8
FFFFF8
ENDCHAR
STARTCHAR 00CC
ENCODING 204
SWIDTH 218 0
DWIDTH 10 0
BBX 5 44 1 0
BITMAP
E0
60
60
70
30
38
38
00
00
00
00
18
18
18
18
18
18
18
18
18
18
18
18
18
18
18
18
18
18
18
18
18
18
18
18
18
18
18
18
18
18
18
18
18
ENDCHAR
STARTCHAR 00CD
ENCODING 205
SWIDTH 218 0
DWIDTH 10 0
BBX 5 44 4 0
BITMAP
38
30
70
70
60
E0
C0
00
00
00
00
C0
C0
C0
C0
C0
C0
C0
C0
C0
C0
C0
C0
C0
C0
C0
C0
C0
C0
C0
C0
C0
C0
C0
C0
C0
C0
C0
C0
C0
C0
C0
C0
C0
ENDCHAR
STARTCHAR 00CE
ENCODING 206
SWIDTH 218 0
DWIDTH 10 0
BBX 12 43 -1 0
BITMAP
0F00
0F00
1F80
39C0
70E0
E070
0000
0000
0000
0000
0600
0600
0600
0600
0600
0600
0600
0600
0600
0600
0600
0600
0600
0600
0600
0600
0600
0600
0600
0600
0600
0600
0600
0600
0600
0600
0600
0600
0600
0600
0600
0600
0600
ENDCHAR
STARTCHAR 00CF
ENCODING 207
SWIDTH 218 0
DWIDTH 10 0
BBX 12 41 -1 0
BITMAP
E070
E070
E070
0000
0000
0000
0000
0000
0600
0600
0600
0600
0600
0600
0600
0600
0600
0600
0600
0600
0600
0600
0600
0600
0600
0600
0600
0600
0600
0600
0600
0600
0600
0600
0600
0600
0600
0600
0600
0600
0600
ENDCHAR
STARTCHAR 00D0
ENCODING 208
SWIDTH 654 0
DWIDTH 30 0
BBX 28 33 0 0
BITMAP
1FFFC000
1FFFF800
1FFFFE00
1C001F00
1C000780
1C000380
1C0001C0
1C0001C0
1C0000E0
1C0000E0
1C0000E0
1C000070
1C000070
1C000070
1C000070
FFFE0070
FFFE0070
1C000070
1C000070
1C000070
1C000070
1C000060
1C0000E0
1C0000E0
1C0000E0
1C0001C0
1C0001C0
1C000380
1C000700
1C001F00
1FFFFC00
1FFFF800
1FFFC000
ENDCHAR
STARTCHAR 00D1
ENCODING 209
SWIDTH 676 0
DWIDTH 31 0
BBX 25 42 3 0
BITMAP
00F03000
01F83000
03BF7000
0307E000
0383C000
00000000
00000000
00000000
00000000
E0000380
F0000380
F8000380
F8000380
FC000380
FE000380
EE000380
E7000380
E7800380
E3800380
E1C00380
E1E00380
E0E00380
E0700380
E0780380
E0380380
E01C0380
E01E0380
E00E0380
E0070380
E0038380
E0038380
E001C380
E000E380
E000E380
E0007380
E0003B80
E0003B80
E0001F80
E0000F80
E0000F80
E0000780
E0000380
ENDCHAR
STARTCHAR 00D2
ENCODING 210
SWIDTH 720 0
DWIDTH 33 0
BBX 30 43 1 0
BITMAP
000C0000
000E0000
00060000
00060000
00070000
00030000
00038000
00000000
00000000
00000000
001FF000
00FFFC00
01FFFF00
07C00F80
0F0003C0
1E0000E0
1C0000F0
3C000070
38000038
70000038
7000001C
7000001C
7000001C
6000001C
E000001C
E000001C
E000000C
E000000C
E000001C
6000001C
7000001C
7000001C
7000001C
70000038
38000038
38000070
1C000070
1E0000E0
0F0003C0
07C00F80
01FFFF00
00FFFE00
001FF000
ENDCHAR
STARTCHAR 00D3
ENCODING 211
SWIDTH 720 0
DWIDTH 33 0
BBX 30 43 1 0
BITMAP
00006000
00006000
0000E000
0000C000
0001C000
00018000
00018000
00000000
00000000
00000000
001FF000
00FFFC00
01FFFF00
07C00F80
0F0003C0
1E0000E0
1C0000F0
3C000070
38000038
70000038
7000001C
7000001C
7000001C
6000001C
E000001C
E000001C
E000000C
E000000C
E000001C
6000001C
7000001C
7000001C
7000001C
70000038
38000038
38000070
1C000070
1E0000E0
0F0003C0
07C00F80
01FFFF00
00FFFE00
001FF000
ENDCHAR
STARTCHAR 00D4
ENCODING 212
SWIDTH 720 0
DWIDTH 33 0
BBX 30 42 1 0
BITMAP
00038000
0007C000
000EE000
001C7000
00383000
00703800
00000000
00000000
00000000
001FF000
00FFFC00
01FFFF00
07C00F80
0F0003C0
1E0000E0
1C0000F0
3C000070
38000038
70000038
7000001C
7000001C
7000001C
6000001C
E000001C
E000001C
E000000C
E000000C
E000001C
6000001C
7000001C
7000001C
7000001C
70000038
38000038
38000070
1C000070
1E0000E0
0F0003C0
07C00F80
01FFFF00
00FFFE00
001FF000
ENDCHAR
STARTCHAR 00D5
ENCODING 213
SWIDTH 720 0
DWIDTH 33 0
BBX 30 41 1 0
BITMAP
003E0C00
007F0C00
0073CC00
0061FC00
00607800
00000000
00000000
00000000
001FF000
00FFFC00
01FFFF00
07C00F80
0F0003C0
1E0000E0
1C0000F0
3C000070
38000038
70000038
7000001C
7000001C
7000001C
6000001C
E000001C
E000001C
E000000C
E000000C
E000001C
6000001C
7000001C
7000001C
7000001C
70000038
38000038
38000070
1C000070
1E0000E0
0F0003C0
07C00F80
01FFFF00
00FFFE00
001FF000
ENDCHAR
STARTCHAR 00D6
ENCODING 214
SWIDTH 720 0
DWIDTH 33 0
BBX 30 41 1 0
BITMAP
00383800
00383800
00383800
00000000
00000000
00000000
00000000
00000000
001FF000
00FFFC00
01FFFF00
07C00F80
0F0003C0
1E0000E0
1C0000F0
3C000070
38000038
70000038
7000001C
7000001C
7000001C
6000001C
E000001C
E000001C
E000000C
E000000C
E000001C
6000001C
7000001C
7000001C
7000001C
70000038
38000038
38000070
1C000070
1E0000E0
0F0003C0
07C00F80
01FFFF00
00FFFE00
001FF000
ENDCHAR
STARTCHAR 00D7
ENCODING 215
SWIDTH 480 0
DWIDTH 22 0
BBX 16 16 3 8
BITMAP
4002
E007
700F
381E
1C3C
0E78
07F0
03E0
03C0
07E0
0E70
1C38
381C
700E
E007
C003
ENDCHAR
STARTCHAR 00D8
ENCODING 216
SWIDTH 720 0
DWIDTH 33 0
BBX 31 33 1 0
BITMAP
001FF004
00FFFE0E
01FFFF1E
07C00FFC
0F0003F8
1E0000F0
1C0000F0
3C0001F8
380003B8
70000738
70000E1C
70001C1C
7000381C
6000701C
E000E01C
E001C01C
E003800C
E007000C
E00E001C
601C001C
7038001C
7070001C
70E0001C
71E00038
3BC00038
3F800070
1F000070
1E0000E0
3F0003C0
7FC00F80
F3FFFF00
E0FFFE00
401FF000
ENDCHAR
STARTCHAR 00D9
ENCODING 217
SWIDTH 698 0
DWIDTH 32 0
BBX 26 44 3 0
BITMAP
00300000
00380000
00180000
00180000
001C0000
000C0000
000E0000
00000000
00000000
00000000
00000000
E00001C0
E00001C0
E00001C0
E00001C0
E00001C0
E00001C0
E00001C0
E00001C0
E00001C0
E00001C0
E00001C0
E00001C0
E00001C0
E00001C0
E00001C0
E00001C0
E00001C0
E00001C0
E00001C0
E00001C0
E00001C0
E00001C0
E00001C0
E0000180
70000380
70000380
78000700
3C000F00
1E001E00
0F007C00
07FFF800
03FFF000
007F8000
ENDCHAR
STARTCHAR 00DA
ENCODING 218
SWIDTH 698 0
DWIDTH 32 0
BBX 26 44 3 0
BITMAP
00030000
00070000
00060000
00060000
000E0000
000C0000
001C0000
00000000
00000000
00000000
00000000
E00001C0
E00001C0
E00001C0
E00001C0
E00001C0
E00001C0
E00001C0
E00001C0
E00001C0
E00001C0
E00001C0
E00001C0
E00001C0
E00001C0
E00001C0
E00001C0
E00001C0
E00001C0
E00001C0
E00001C0
E00001C0
E00001C0
E00001C0
E0000180
70000380
70000380
78000700
3C000F00
1E001E00
0F007C00
07FFF800
03FFF000
007F8000
ENDCHAR
STARTCHAR 00DB
ENCODING 219
SWIDTH 698 0
DWIDTH 32 0
BBX 26 43 3 0
BITMAP
001E0000
003E0000
00370000
00738000
00E1C000
01C0E000
00000000
00000000
00000000
00000000
E00001C0
E00001C0
E00001C0
E00001C0
E00001C0
E00001C0
E00001C0
E00001C0
E00001C0
E00001C0
E00001C0
E00001C0
E00001C0
E00001C0
E00001C0
E00001C0
E00001C0
E00001C0
E00001C0
E00001C0
E00001C0
E00001C0
E00001C0
E0000180
70000380
70000380
78000700
3C000F00
1E001E00
0F007C00
07FFF800
03FFF000
007F8000
ENDCHAR
STARTCHAR 00DC
ENCODING 220
SWIDTH 698 0
DWIDTH 32 0
BBX 26 41 3 0
BITMAP
01C0E000
01C0E000
01C0E000
00000000
00000000
00000000
00000000
00000000
E00001C0
E00001C0
E00001C0
E00001C0
E00001C0
E00001C0
E00001C0
E00001C0
E00001C0
E00001C0
E00001C0
E00001C0
E00001C0
E00001C0
E00001C0
E00001C0
E00001C0
E00001C0
E00001C0
E00001C0
E00001C0
E00001C0
E00001C0
E0000180
70000380
70000380
78000700
3C000F00
1E001E00
0F007C00
07FFF800
03FFF000
007F8000
ENDCHAR
STARTCHAR 00DD
ENCODING 221
SWIDTH 545 0
DWIDTH 25 0
BBX 24 44 0 0
BITMAP
000600
000600
000E00
000C00
001C00
001C00
001800
000000
000000
000000
000000
E00007
700007
78000E
38000E
1C001C
1C0038
0E0038
0E0070
070070
0780E0
0380E0
01C1C0
01C380
00E380
00E700
007700
007E00
003E00
001C00
001C00
001C00
001C00
001C00
001C00
001C00
001C00
001C00
001C00
001C00
001C00
001C00
001C00
001C00
ENDCHAR
STARTCHAR 00DE
ENCODING 222
SWIDTH 589 0
DWIDTH 27 0
BBX 22 33 3 0
BITMAP
E00000
E00000
E00000
E00000
E00000
E00000
FFF800
FFFF80
FFFFC0
E001E0
E00070
E00038
E00038
E0001C
E0001C
E0001C
E0000C
E0001C
E0001C
E0001C
E00038
E00038
E00070
E001E0
FFFFC0
FFFF80
FFF800
E00000
E00000
E00000
E00000
E00000
E00000
ENDCHAR
STARTCHAR 00DF
ENCODING 223
SWIDTH 589 0
DWIDTH 27 0
BBX 21 33 3 0
BITMAP
03F800
0FFE00
3FFF00
3C0780
700380
7001C0
E001C0
E001C0
E001C0
E001C0
E001C0
E001C0
E00380
E00780
E03E00
E07E00
E07F80
E003E0
E000E0
E00070
E00038
E00038
E00038
E00038
E00038
E00038
E00038
E00070
E000F0
E001E0
E1FFC0
E1FF80
E1FE00
ENDCHAR
STARTCHAR 00E0
ENCODING 224
SWIDTH 545 0
DWIDTH 25 0
BBX 20 35 2 0
BITMAP
01C000
00C000
00E000
006000
006000
007000
003000
000000
000000
000000
01FC00
07FF80
1FFFC0
3C01E0
3800F0
700070
700070
000030
000030
000030
003FF0
07FFF0
1FF830
3E0030
780030
E00030
E00070
E00070
E00070
E000F0
E001F0
7007B0
3F7F30
1FFE30
07F000
ENDCHAR
STARTCHAR 00E1
ENCODING 225
SWIDTH 545 0
DWIDTH 25 0
BBX 20 35 2 0
BITMAP
000C00
001C00
001C00
001800
003800
003000
003000
000000
000000
000000
01FC00
07FF80
1FFFC0
3C01E0
3800F0
700070
700070
000030
000030
000030
003FF0
07FFF0
1FF830
3E0030
780030
E00030
E00070
E00070
E00070
E000F0
E001F0
7007B0
3F7F30
1FFE30
07F000
ENDCHAR
STARTCHAR 00E2
ENCODING 226
SWIDTH 545 0
DWIDTH 25 0
BBX 20 34 2 0
BITMAP
007800
00FC00
01DC00
01CE00
038700
070380
000000
000000
000000
01FC00
07FF80
1FFFC0
3C01E0
3800F0
700070
700070
000030
000030
000030
003FF0
07FFF0
1FF830
3E0030
780030
E00030
E00070
E00070
E00070
E000F0
E001F0
7007B0
3F7F30
1FFE30
07F000
ENDCHAR
STARTCHAR 00E3
ENCODING 227
SWIDTH 545 0
DWIDTH 25 0
BBX 20 33 2 0
BITMAP
03C0C0
07F0C0
067DC0
0E1F80
060F00
000000
000000
000000
01FC00
07FF80
1FFFC0
3C01E0
3800F0
700070
700070
000030
000030
000030
003FF0
07FFF0
1FF830
3E0030
780030
E00030
E00070
E00070
E00070
E000F0
E001F0
7007B0
3F7F30
1FFE30
07F000
ENDCHAR
STARTCHAR 00E4
ENCODING 228
SWIDTH 545 0
DWIDTH 25 0
BBX 20 33 2 0
BITMAP
070380
070380
070380
000000
000000
000000
000000
000000
01FC00
07FF80
1FFFC0
3C01E0
3800F0
700070
700070
000030
000030
000030
003FF0
07FFF0
1FF830
3E0030
780030
E00030
E00070
E00070
E00070
E000F0
E001F0
7007B0
3F7F30
1FFE30
07F000
ENDCHAR
STARTCHAR 00E5
ENCODING 229
SWIDTH 545 0
DWIDTH 25 0
BBX 20 36 2 0
BITMAP
00F800
01FE00
018E00
038700
030700
038600
01CE00
01FC00
007800
000000
000000
01FC00
07FF80
1FFFC0
3C01E0
3800F0
700070
700070
000030
000030
000030
003FF0
07FFF0
1FF830
3E0030
780030
E00030
E00070
E00070
E00070
E000F0
E001F0
7007B0
3F7F30
1FFE30
07F000
ENDCHAR
STARTCHAR 00E6
ENCODING 230
SWIDTH 938 0
DWIDTH 43 0
BBX 39 25 2 0
BITMAP
01FC007F00
07FF81FFC0
1FFFC3FFF0
3C01E78078
3800EE0038
70007C001C
70007C000C
000038000E
000038000E
000038000E
0000380006
03FFFFFFFE
1FFFFFFFFE
3F00300000
7000380000
E000380000
E000780000
E000780000
E0007C000E
E000FC001C
E001CE003C
7007878078
7F7F03FFF0
1FFE01FFE0
07F8007F00
ENDCHAR
STARTCHAR 00E7
ENCODING 231
SWIDTH 545 0
DWIDTH 25 0
BBX 21 35 2 -10
BITMAP
00FE00
07FF80
0FFFE0
1E01F0
3C0078
780038
700018
700000
E00000
E00000
E00000
E00000
E00000
E00000
E00000
E00000
E00000
700000
700010
780038
3C0078
1E00F0
0FFFE0
07FF80
00FE00
003000
003000
007000
007800
001C00
000C00
000C00
001C00
00FC00
01F800
ENDCHAR
STARTCHAR 00E8
ENCODING 232
SWIDTH 589 0
DWIDTH 27 0
BBX 23 35 2 0
BITMAP
00E000
006000
006000
007000
003000
003800
003800
000000
000000
000000
00FE00
07FF80
0FFFE0
1E00F0
3C0070
780038
70001C
60001C
E0001C
E0000C
E0000E
FFFFFE
FFFFFE
E00000
E00000
E00000
E00000
600000
70001C
78003C
3C0078
1E00F0
0FFFE0
07FFC0
00FE00
ENDCHAR
STARTCHAR 00E9
ENCODING 233
SWIDTH 589 0
DWIDTH 27 0
BBX 23 35 2 0
BITMAP
000600
000600
000E00
000C00
001C00
001800
001800
000000
000000
000000
00FE00
07FF80
0FFFE0
1E00F0
3C0070
780038
70001C
60001C
E0001C
E0000C
E0000E
FFFFFE
FFFFFE
E00000
E00000
E00000
E00000
600000
70001C
78003C
3C0078
1E00F0
0FFFE0
07FFC0
00FE00
ENDCHAR
STARTCHAR 00EA
ENCODING 234
SWIDTH 589 0
DWIDTH 27 0
BBX 23 34 2 0
BITMAP
003800
007C00
00EE00
01C700
038300
070380
000000
000000
000000
00FE00
07FF80
0FFFE0
1E00F0
3C0070
780038
70001C
60001C
E0001C
E0000C
E0000E
FFFFFE
FFFFFE
E00000
E00000
E00000
E00000
600000
70001C
78003C
3C0078
1E00F0
0FFFE0
07FFC0
00FE00
ENDCHAR
STARTCHAR 00EB
ENCODING 235
SWIDTH 589 0
DWIDTH 27 0
BBX 23 33 2 0
BITMAP
078380
078380
078380
000000
000000
000000
000000
000000
00FE00
07FF80
0FFFE0
1E00F0
3C0070
780038
70001C
60001C
E0001C
E0000C
E0000E
FFFFFE
FFFFFE
E00000
E00000
E00000
E00000
600000
70001C
78003C
3C0078
1E00F0
0FFFE0
07FFC0
00FE00
ENDCHAR
STARTCHAR 00EC
ENCODING 236
SWIDTH 218 0
DWIDTH 10 0
BBX 5 36 1 0
BITMAP
E0
60
60
70
30
38
38
00
00
00
00
18
18
18
18
18
18
18
18
18
18
18
18
18
18
18
18
18
18
18
18
18
18
18
18
18
ENDCHAR
STARTCHAR 00ED
ENCODING 237
SWIDTH 218 0
DWIDTH 10 0
BBX 5 36 4 0
BITMAP
38
30
70
70
60
E0
C0
00
00
00
00
C0
C0
C0
C0
C0
C0
C0
C0
C0
C0
C0
C0
C0
C0
C0
C0
C0
C0
C0
C0
C0
C0
C0
C0
C0
ENDCHAR
STARTCHAR 00EE
ENCODING 238
SWIDTH 218 0
DWIDTH 10 0
BBX 12 35 -1 0
BITMAP
0F00
0F80
1F80
39C0
70E0
E070
0000
0000
0000
0000
0600
0600
0600
0600
0600
0600
0600
0600
0600
0600
0600
0600
0600
0600
0600
0600
0600
0600
0600
0600
0600
0600
0600
0600
0600
ENDCHAR
STARTCHAR 00EF
ENCODING 239
SWIDTH 218 0
DWIDTH 10 0
BBX 12 33 -1 0
BITMAP
E070
E070
E070
0000
0000
0000
0000
0000
0600
0600
0600
0600
0600
0600
0600
0600
0600
0600
0600
0600
0600
0600
0600
0600
0600
0600
0600
0600
0600
0600
0600
0600
0600
ENDCHAR
STARTCHAR 00F0
ENCODING 240
SWIDTH 567 0
DWIDTH 26 0
BBX 23 36 2 0
BITMAP
0000C0
0001C0
007B80
00FF80
001F80
000FC0
001DE0
0038F0
001870
000038
000038
003018
03FF1C
0FFFDC
1F03EC
3C00FC
38003C
70003C
70001E
E0001E
E0001E
E0000E
E0000E
E0000E
E0000E
E0000E
E0000C
E0001C
60001C
70001C
700038
380078
1E00F0
0FFFE0
07FF80
01FE00
ENDCHAR
STARTCHAR 00F1
ENCODING 241
SWIDTH 589 0
DWIDTH 27 0
BBX 21 33 3 0
BITMAP
078180
0FE180
0CFB80
0C3F80
0C0F00
000000
000000
000000
C0FC00
E7FF00
EFFFC0
FE01E0
F800E0
F00070
F00070
E00030
E00038
E00038
E00038
E00038
E00038
E00038
E00038
E00038
E00038
E00038
E00038
E00038
E00038
E00038
E00038
E00038
E00038
ENDCHAR
STARTCHAR 00F2
ENCODING 242
SWIDTH 589 0
DWIDTH 27 0
BBX 23 35 2 0
BITMAP
00C000
00E000
00E000
006000
007000
003000
003000
000000
000000
000000
00FE00
07FF80
0FFFE0
1E00F0
3C0078
780038
70001C
70001C
E0000C
E0000E
E0000E
E0000E
E0000E
E0000E
E0000E
E0000E
E0000C
70001C
70001C
780038
3C0078
1E00F0
0FFFE0
07FF80
00FE00
ENDCHAR
STARTCHAR 00F3
ENCODING 243
SWIDTH 589 0
DWIDTH 27 0
BBX 23 35 2 0
BITMAP
000E00
000C00
000C00
001C00
001800
001800
003800
000000
000000
000000
00FE00
07FF80
0FFFE0
1E00F0
3C0078
780038
70001C
70001C
E0000C
E0000E
E0000E
E0000E
E0000E
E0000E
E0000E
E0000E
E0000C
70001C
70001C
780038
3C0078
1E00F0
0FFFE0
07FF80
00FE00
ENDCHAR
STARTCHAR 00F4
ENCODING 244
SWIDTH 589 0
DWIDTH 27 0
BBX 23 34 2 0
BITMAP
003800
007C00
00EE00
01C700
038300
070380
000000
000000
000000
00FE00
07FF80
0FFFE0
1E00F0
3C0078
780038
70001C
70001C
E0000C
E0000E
E0000E
E0000E
E0000E
E0000E
E0000E
E0000E
E0000C
70001C
70001C
780038
3C0078
1E00F0
0FFFE0
07FF80
00FE00
ENDCHAR
STARTCHAR 00F5
ENCODING 245
SWIDTH 589 0
DWIDTH 27 0
BBX 23 33 2 0
BITMAP
03C0C0
07F0C0
067DC0
061FC0
060780
000000
000000
000000
00FE00
07FF80
0FFFE0
1E00F0
3C0078
780038
70001C
70001C
E0000C
E0000E
E0000E
E0000E
E0000E
E0000E
E0000E
E0000E
E0000C
70001C
70001C
780038
3C0078
1E00F0
0FFFE0
07FF80
00FE00
ENDCHAR
STARTCHAR 00F6
ENCODING 246
SWIDTH 589 0
DWIDTH 27 0
BBX 23 33 2 0
BITMAP
038380
038380
038380
000000
000000
000000
000000
000000
00FE00
07FF80
0FFFE0
1E00F0
3C0078
780038
70001C
70001C
E0000C
E0000E
E0000E
E0000E
E0000E
E0000E
E0000E
E0000E
E0000C
70001C
70001C
780038
3C0078
1E00F0
0FFFE0
07FF80
00FE00
ENDCHAR
STARTCHAR 00F7
ENCODING 247
SWIDTH 545 0
DWIDTH 25 0
BBX 19 15 3 9
BITMAP
00E000
00E000
00E000
000000
000000
000000
FFFFE0
FFFFE0
000000
000000
000000
000000
00E000
00E000
00E000
ENDCHAR
STARTCHAR 00F8
ENCODING 248
SWIDTH 589 0
DWIDTH 27 0
BBX 25 25 1 0
BITMAP
007F0100
03FFE780
07FFFF00
0F007E00
1E003C00
3C003C00
38007E00
3800EE00
7001C600
70038700
70070700
700E0700
701C0700
70380700
70700700
70E00700
71C00600
73800E00
3F000E00
3E001C00
1E003C00
3F007800
7FFFF000
E3FFC000
407F0000
ENDCHAR
STARTCHAR 00F9
ENCODING 249
SWIDTH 589 0
DWIDTH 27 0
BBX 21 36 3 0
BITMAP
018000
01C000
00C000
00E000
00E000
006000
007000
000000
000000
000000
000000
C00038
C00038
C00038
C00038
C00038
C00038
C00038
C00038
C00038
C00038
C00038
C00038
C00038
C00038
C00038
E00038
E00038
E00078
600078
7000F8
7801F8
3C03F8
1FFFB8
0FFE38
03F838
ENDCHAR
STARTCHAR 00FA
ENCODING 250
SWIDTH 589 0
DWIDTH 27 0
BBX 21 36 3 0
BITMAP
001C00
001800
003800
003800
003000
007000
006000
000000
000000
000000
000000
C00038
C00038
C00038
C00038
C00038
C00038
C00038
C00038
C00038
C00038
C00038
C00038
C00038
C00038
C00038
E00038
E00038
E00078
600078
7000F8
7801F8
3C03F8
1FFFB8
0FFE38
03F838
ENDCHAR
STARTCHAR 00FB
ENCODING 251
SWIDTH 589 0
DWIDTH 27 0
BBX 21 35 3 0
BITMAP
00F000
00F800
01D800
039C00
070E00
0E0700
000000
000000
000000
000000
C00038
C00038
C00038
C00038
C00038
C00038
C00038
C00038
C00038
C00038
C00038
C00038
C00038
C00038
C00038
E00038
E00038
E00078
600078
7000F8
7801F8
3C03F8
1FFFB8
0FFE38
03F838
ENDCHAR
STARTCHAR 00FC
ENCODING 252
SWIDTH 589 0
DWIDTH 27 0
BBX 21 33 3 0
BITMAP
0E0700
0E0700
0E0700
000000
000000
000000
000000
000000
C00038
C00038
C00038
C00038
C00038
C00038
C00038
C00038
C00038
C00038
C00038
C00038
C00038
C00038
C00038
E00038
E00038
E00078
600078
7000F8
7801F8
3C03F8
1FFFB8
0FFE38
03F838
ENDCHAR
STARTCHAR 00FD
ENCODING 253
SWIDTH 523 0
DWIDTH 24 0
BBX 22 47 1 -11
BITMAP
000C00
000C00
001C00
001800
003800
003800
003000
000000
000000
000000
000000
E0001C
E00038
700038
700030
300070
380070
380060
1C00E0
1C00E0
0C01C0
0E01C0
0601C0
070380
070380
030300
038700
018700
01C600
01CE00
00EE00
00FC00
007C00
007800
007800
003800
003000
007000
007000
006000
00E000
00E000
01C000
01C000
018000
038000
038000
ENDCHAR
STARTCHAR 00FE
ENCODING 254
SWIDTH 589 0
DWIDTH 27 0
BBX 22 43 3 -10
BITMAP
E00000
E00000
E00000
E00000
E00000
E00000
E00000
E00000
E0FE00
E3FF80
EFFFC0
FE01E0
F800F0
F80070
F00038
E00038
E00018
E0001C
E0001C
E0001C
E0001C
E0001C
E0001C
E0001C
E00018
E00038
F00038
F80070
F800F0
FE01E0
EFFFC0
E3FF80
E0FE00
E00000
E00000
E00000
E00000
E00000
E00000
E00000
E00000
E00000
E00000
ENDCHAR
STARTCHAR 00FF
ENCODING 255
SWIDTH 523 0
DWIDTH 24 0
BBX 22 44 1 -11
BITMAP
070380
070380
070380
000000
000000
000000
000000
000000
E0001C
E00038
700038
700030
300070
380070
380060
1C00E0
1C00E0
0C01C0
0E01C0
0601C0
070380
070380
030300
038700
018700
01C600
01CE00
00EE00
00FC00
007C00
007800
007800
003800
003000
007000
007000
006000
00E000
00E000
01C000
01C000
018000
038000
038000
ENDCHAR
ENDFONT
